<svg width="21" height="22" viewBox="0 0 21 22" fill="none" xmlns="http://www.w3.org/2000/svg">
<path d="M15.75 7.33334C15.75 5.87465 15.1969 4.47571 14.2123 3.44426C13.2277 2.41281 11.8924 1.83334 10.5 1.83334C9.10761 1.83334 7.77226 2.41281 6.78769 3.44426C5.80312 4.47571 5.25 5.87465 5.25 7.33334C5.25 13.75 2.625 15.5833 2.625 15.5833H18.375C18.375 15.5833 15.75 13.75 15.75 7.33334Z" stroke="#242424" stroke-width="2" stroke-linecap="round" stroke-linejoin="round"/>
<path d="M12.0138 19.25C11.8599 19.5278 11.6391 19.7584 11.3735 19.9187C11.1078 20.079 10.8066 20.1634 10.5 20.1634C10.1934 20.1634 9.89223 20.079 9.62657 19.9187C9.3609 19.7584 9.1401 19.5278 8.98627 19.25" stroke="#242424" stroke-width="2" stroke-linecap="round" stroke-linejoin="round"/>
</svg>
