<svg width="37" height="37" viewBox="0 0 37 37" fill="none" xmlns="http://www.w3.org/2000/svg">
<g clip-path="url(#clip0_164_106)">
<circle cx="18.5" cy="18.5" r="18.5" fill="white"/>
<path d="M19.0001 13.748L18.2831 13.011C16.6001 11.281 13.514 11.878 12.3999 14.053C11.8769 15.076 11.7589 16.553 12.7139 18.438C13.634 20.253 15.548 22.427 19.0001 24.795C22.4522 22.427 24.3653 20.253 25.2863 18.438C26.2414 16.552 26.1244 15.076 25.6003 14.053C24.4863 11.878 21.4002 11.28 19.7172 13.01L19.0001 13.748ZM19.0001 26C3.66667 15.868 14.279 7.96006 18.8241 12.143C18.8841 12.198 18.9431 12.255 19.0001 12.314C19.0566 12.2551 19.1153 12.1984 19.1761 12.144C23.7203 7.95806 34.3336 15.867 19.0001 26Z" fill="#242424"/>
</g>
<defs>
<clipPath id="clip0_164_106">
<rect width="37" height="37" fill="white"/>
</clipPath>
</defs>
</svg>
