<svg width="30" height="30" viewBox="0 0 30 30" fill="none" xmlns="http://www.w3.org/2000/svg">
<circle cx="15" cy="15" r="15" fill="#AAAAAA" fill-opacity="0.19"/>
<path d="M22.1626 14.8595C22.1919 14.9511 22.2019 15.0419 22.1921 15.1267C22.1823 15.2115 22.1528 15.2886 22.1055 15.3537C22.0581 15.4188 21.9938 15.4705 21.9161 15.5059C21.8384 15.5413 21.749 15.5597 21.6529 15.5601L9.25602 15.6201C9.06203 15.6211 8.85264 15.5485 8.67391 15.4185C8.49518 15.2884 8.36174 15.1115 8.30296 14.9266C8.24418 14.7418 8.26486 14.5641 8.36046 14.4327C8.45606 14.3013 8.61875 14.227 8.81273 14.2261L21.2096 14.166C21.3056 14.1654 21.4065 14.1829 21.5064 14.2175C21.6063 14.252 21.7034 14.303 21.7919 14.3674C21.8804 14.4318 21.9587 14.5084 22.0224 14.5929C22.086 14.6773 22.1336 14.7679 22.1626 14.8595Z" fill="#F0F0F0"/>
</svg>
