<svg width="19" height="20" viewBox="0 0 19 20" fill="none" xmlns="http://www.w3.org/2000/svg">
<path fill-rule="evenodd" clip-rule="evenodd" d="M17.1 0H1.9C0.855 0 0 1 0 2.22222V17.7778C0 19 0.855 20 1.9 20H17.1C18.145 20 19 19 19 17.7778V2.22222C19 1 18.145 0 17.1 0ZM7.6 15.5556H2.85V13.3333H7.6V15.5556ZM7.6 11.1111H2.85V8.88889H7.6V11.1111ZM7.6 6.66667H2.85V4.44444H7.6V6.66667ZM12.179 13.3333L9.5 10.1778L10.8395 8.61111L12.179 10.1889L15.1905 6.66667L16.5395 8.24444L12.179 13.3333Z" fill="#AEAEAE"/>
</svg>
