<svg width="30" height="30" viewBox="0 0 30 30" fill="none" xmlns="http://www.w3.org/2000/svg">
<circle cx="15" cy="15" r="15" fill="#363431"/>
<path d="M15.4773 8.30506C15.5739 8.30509 15.6698 8.32416 15.7594 8.3612C15.8491 8.39824 15.9307 8.45251 15.9998 8.5209C16.0688 8.5893 16.1238 8.67047 16.1617 8.75978C16.1995 8.84909 16.2195 8.94477 16.2204 9.04135L16.2779 14.5375L21.7743 14.5448C21.8708 14.5449 21.9666 14.5641 22.0562 14.6011C22.1458 14.6382 22.2274 14.6925 22.2964 14.7609C22.3654 14.8292 22.4204 14.9104 22.4583 14.9996C22.4962 15.0889 22.5163 15.1845 22.5173 15.281C22.5183 15.3776 22.5003 15.4732 22.4643 15.5623C22.4283 15.6514 22.375 15.7324 22.3075 15.8006C22.2399 15.8687 22.1595 15.9228 22.0707 15.9596C21.9819 15.9964 21.8865 16.0152 21.7899 16.0151L16.2935 16.0057L16.353 21.5018C16.3541 21.5984 16.3361 21.6939 16.3001 21.7831C16.2641 21.8722 16.2108 21.9532 16.1432 22.0213C16.0757 22.0895 15.9952 22.1435 15.9064 22.1803C15.8176 22.2171 15.7222 22.236 15.6257 22.2359C15.5291 22.2357 15.4333 22.2166 15.3437 22.1795C15.2541 22.1424 15.1725 22.0881 15.1035 22.0198C15.0345 21.9514 14.9795 21.8703 14.9416 21.781C14.9037 21.6918 14.8836 21.5961 14.8826 21.4996L14.8251 16.0035L9.32874 15.9962C9.23219 15.996 9.13639 15.9769 9.04679 15.9398C8.9572 15.9027 8.87557 15.8484 8.80658 15.7801C8.73758 15.7117 8.68256 15.6306 8.64466 15.5413C8.60677 15.4521 8.58673 15.3564 8.5857 15.2599C8.58468 15.1633 8.60267 15.0678 8.63867 14.9786C8.67467 14.8895 8.72796 14.8085 8.79551 14.7404C8.86305 14.6722 8.94352 14.6182 9.03233 14.5814C9.12114 14.5446 9.21654 14.5257 9.31309 14.5258L14.8095 14.5352L14.75 9.03911C14.7488 8.94253 14.7667 8.84691 14.8027 8.75772C14.8386 8.66852 14.8919 8.58751 14.9595 8.51932C15.0271 8.45114 15.1076 8.39711 15.1964 8.36035C15.2853 8.32358 15.3808 8.30479 15.4773 8.30506Z" fill="white"/>
</svg>
