<svg width="36" height="34" viewBox="0 0 36 34" fill="none" xmlns="http://www.w3.org/2000/svg">
<g clip-path="url(#clip0_6_75)">
<path d="M2.25 9.5625C2.25 8.99891 2.48705 8.45841 2.90901 8.0599C3.33097 7.66138 3.90326 7.4375 4.5 7.4375H31.5C32.0967 7.4375 32.669 7.66138 33.091 8.0599C33.5129 8.45841 33.75 8.99891 33.75 9.5625V22.3125C33.75 22.8761 33.5129 23.4166 33.091 23.8151C32.669 24.2136 32.0967 24.4375 31.5 24.4375H4.5C3.90326 24.4375 3.33097 24.2136 2.90901 23.8151C2.48705 23.4166 2.25 22.8761 2.25 22.3125V9.5625ZM0 22.3125C0 23.4397 0.474106 24.5207 1.31802 25.3177C2.16193 26.1147 3.30653 26.5625 4.5 26.5625H31.5C32.6935 26.5625 33.8381 26.1147 34.682 25.3177C35.5259 24.5207 36 23.4397 36 22.3125V9.5625C36 8.43533 35.5259 7.35433 34.682 6.5573C33.8381 5.76027 32.6935 5.3125 31.5 5.3125H4.5C3.30653 5.3125 2.16193 5.76027 1.31802 6.5573C0.474106 7.35433 0 8.43533 0 9.5625L0 22.3125Z" fill="#242424"/>
<path d="M31.5 15.9375C31.5 15.3739 31.2629 14.8334 30.841 14.4349C30.419 14.0364 29.8467 13.8125 29.25 13.8125C28.6533 13.8125 28.081 14.0364 27.659 14.4349C27.2371 14.8334 27 15.3739 27 15.9375C27 16.5011 27.2371 17.0416 27.659 17.4401C28.081 17.8386 28.6533 18.0625 29.25 18.0625C29.8467 18.0625 30.419 17.8386 30.841 17.4401C31.2629 17.0416 31.5 16.5011 31.5 15.9375Z" fill="#242424"/>
</g>
<defs>
<clipPath id="clip0_6_75">
<rect width="36" height="34" fill="white"/>
</clipPath>
</defs>
</svg>
