<svg width="25" height="26" viewBox="0 0 25 26" fill="none" xmlns="http://www.w3.org/2000/svg">
<path d="M17.9922 9.2C17.1116 9.2 16.3345 8.62393 16.0786 7.78128L14.4137 2.30014C13.8391 0.408505 11.1609 0.408501 10.5863 2.30013L8.92144 7.78127C8.66548 8.62393 7.88844 9.2 7.00777 9.2H2.24586C0.299716 9.2 -0.500027 11.6976 1.08414 12.828L5.02086 15.6372C5.72293 16.1382 6.02475 17.0328 5.76965 17.8567L4.16428 23.0417C3.58892 24.9 5.7364 26.4027 7.2851 25.2255L11.2907 22.1807C12.0055 21.6374 12.9948 21.637 13.71 22.1798L17.7351 25.2344C19.2841 26.4099 21.4298 24.9073 20.8547 23.0497L19.2465 17.8556C18.9916 17.0323 19.2928 16.1382 19.994 15.637L23.9253 12.8271C25.508 11.6959 24.7077 9.2 22.7624 9.2H17.9922Z" fill="#AEAEAE"/>
</svg>
