<svg width="22" height="23" viewBox="0 0 22 23" fill="none" xmlns="http://www.w3.org/2000/svg">
<path d="M10.989 0C4.917 0 0 5.152 0 11.5C0 17.848 4.917 23 10.989 23C17.072 23 22 17.848 22 11.5C22 5.152 17.072 0 10.989 0ZM18.612 6.9H15.367C15.015 5.4625 14.509 4.0825 13.849 2.806C15.873 3.5305 17.556 5.0025 18.612 6.9ZM11 2.346C11.913 3.726 12.628 5.2555 13.101 6.9H8.899C9.372 5.2555 10.087 3.726 11 2.346ZM2.486 13.8C2.31 13.064 2.2 12.2935 2.2 11.5C2.2 10.7065 2.31 9.936 2.486 9.2H6.204C6.116 9.959 6.05 10.718 6.05 11.5C6.05 12.282 6.116 13.041 6.204 13.8H2.486ZM3.388 16.1H6.633C6.985 17.5375 7.491 18.9175 8.151 20.194C6.127 19.4695 4.444 18.009 3.388 16.1ZM6.633 6.9H3.388C4.444 4.991 6.127 3.5305 8.151 2.806C7.491 4.0825 6.985 5.4625 6.633 6.9ZM11 20.654C10.087 19.274 9.372 17.7445 8.899 16.1H13.101C12.628 17.7445 11.913 19.274 11 20.654ZM13.574 13.8H8.426C8.327 13.041 8.25 12.282 8.25 11.5C8.25 10.718 8.327 9.9475 8.426 9.2H13.574C13.673 9.9475 13.75 10.718 13.75 11.5C13.75 12.282 13.673 13.041 13.574 13.8ZM13.849 20.194C14.509 18.9175 15.015 17.5375 15.367 16.1H18.612C17.556 17.9975 15.873 19.4695 13.849 20.194ZM15.796 13.8C15.884 13.041 15.95 12.282 15.95 11.5C15.95 10.718 15.884 9.959 15.796 9.2H19.514C19.69 9.936 19.8 10.7065 19.8 11.5C19.8 12.2935 19.69 13.064 19.514 13.8H15.796Z" fill="#AEAEAE"/>
</svg>
