<svg width="21" height="23" viewBox="0 0 21 23" fill="none" xmlns="http://www.w3.org/2000/svg">
<path d="M10.5 0C4.70647 0 0 4.3815 0 9.775C0 15.1685 4.70647 19.55 10.5 19.55H11.1176V23C17.1212 20.309 21 14.95 21 9.775C21 4.3815 16.2935 0 10.5 0ZM11.7353 16.675H9.26471V14.375H11.7353V16.675ZM11.7353 12.65H9.26471C9.26471 8.9125 12.9706 9.2 12.9706 6.9C12.9706 5.635 11.8588 4.6 10.5 4.6C9.14118 4.6 8.02941 5.635 8.02941 6.9H5.55882C5.55882 4.3585 7.77 2.3 10.5 2.3C13.23 2.3 15.4412 4.3585 15.4412 6.9C15.4412 9.775 11.7353 10.0625 11.7353 12.65Z" fill="#AEAEAE"/>
</svg>
